<svg width="32" height="32" viewBox="0 0 32 32" fill="none" xmlns="http://www.w3.org/2000/svg">
<path d="M11.3312 6.05901C9.78386 6.11919 8.3866 6.6712 7.63912 7.41884C7.29201 7.76605 6.72916 7.76605 6.38204 7.41893C6.03484 7.07191 6.03475 6.50906 6.38186 6.16186C7.53512 5.00843 9.41194 4.35456 11.262 4.28256C13.1242 4.21012 15.1572 4.71999 16.5809 6.14399C16.9279 6.49111 16.9279 7.05395 16.5807 7.40107C16.2336 7.74818 15.6708 7.74809 15.3237 7.40098C14.3539 6.43093 12.8663 5.99928 11.3312 6.05901Z" fill="#525B5A"/>
<path fill-rule="evenodd" clip-rule="evenodd" d="M20.3874 19.0082C22.0869 16.9963 23.1114 14.3955 23.1114 11.5556C23.1114 5.17363 17.9377 0 11.5557 0C5.17366 0 0 5.17363 0 11.5556C0 17.9376 5.17366 23.1112 11.5557 23.1112C14.3956 23.1112 16.9964 22.0868 19.0083 20.3872L18.6669 22.3505L25.3458 29.0294L29.0296 25.3456L22.3507 18.6668L20.3874 19.0082ZM11.5557 20.4445C16.4649 20.4445 20.4447 16.4648 20.4447 11.5556C20.4447 6.64643 16.4649 2.66668 11.5557 2.66668C6.64648 2.66668 2.6667 6.64643 2.6667 11.5556C2.6667 16.4648 6.64648 20.4445 11.5557 20.4445Z" fill="#525B5A"/>
<path d="M26.6025 30.2858L30.2863 26.6021L31.4914 27.8072C32.1695 28.4854 32.1695 29.5848 31.4914 30.263L30.2635 31.4909C29.5853 32.169 28.4859 32.169 27.8077 31.4909L26.6025 30.2858Z" fill="#525B5A"/>
</svg>
